<svg width="794" height="741" viewBox="0 0 794 741" fill="none" xmlns="http://www.w3.org/2000/svg">
<path fill-rule="evenodd" clip-rule="evenodd" d="M80.877 448.948L340.421 695.515L724.913 516.085L395.302 361.967L80.877 448.948Z" fill="#AFAFDE" stroke="black" stroke-width="7.44591" stroke-linejoin="round"/>
<path fill-rule="evenodd" clip-rule="evenodd" d="M69 110.241L80.8774 448.948L395.302 361.967L385.355 78.3018L69 110.241Z" fill="#353564" stroke="black" stroke-width="7.44591" stroke-linejoin="round"/>
<path fill-rule="evenodd" clip-rule="evenodd" d="M385.355 78.3018L710.866 115.469L724.914 516.085L395.303 361.967L385.355 78.3018Z" fill="#E9E9FF" stroke="black" stroke-width="7.44591" stroke-linejoin="round"/>
<path fill-rule="evenodd" clip-rule="evenodd" d="M69 110.241L322.189 175.569L710.865 115.469L385.355 78.3018L69 110.241Z" fill="#19AEFF" stroke="black" stroke-width="7.44591" stroke-linejoin="round"/>
<path fill-rule="evenodd" clip-rule="evenodd" d="M322.188 175.57L340.421 695.515L724.914 516.086L710.865 115.469L322.188 175.57Z" fill="#0084C8" stroke="black" stroke-width="7.44591" stroke-linejoin="round"/>
<path fill-rule="evenodd" clip-rule="evenodd" d="M69 110.241L322.189 175.569L340.422 695.515L80.8774 448.948L69 110.241Z" fill="#19AEFF" stroke="black" stroke-width="7.44591" stroke-linejoin="round"/>
<path d="M95.0967 209.957C95.0967 209.957 128.002 142.21 195.749 211.892C228.689 245.774 251.882 283.51 282.852 233.184" stroke="black" stroke-width="11.1689"/>
<path d="M95.0967 254.632C95.0967 254.632 128.002 186.885 195.749 256.568C228.689 290.449 251.882 328.186 282.852 277.86" stroke="black" stroke-width="11.1689"/>
<path d="M95.0967 299.308C95.0967 299.308 128.002 231.561 195.749 301.244C228.689 335.125 251.882 372.861 282.852 322.535" stroke="black" stroke-width="11.1689"/>
</svg>
